<?xml version="1.0" standalone="no"?>
<!DOCTYPE svg PUBLIC "-//W3C//DTD SVG 20010904//EN"
 "http://www.w3.org/TR/2001/REC-SVG-20010904/DTD/svg10.dtd">
<svg version="1.0" xmlns="http://www.w3.org/2000/svg"
 width="96.000000pt" height="96.000000pt" viewBox="0 0 96.000000 96.000000"
 preserveAspectRatio="xMidYMid meet">

<g transform="translate(0.000000,96.000000) scale(0.100000,-0.100000)"
fill="#000000" stroke="none">
<path d="M0 480 l0 -480 48 0 49 0 41 88 c22 48 44 98 47 111 l7 24 -28 -22
c-29 -23 -88 -51 -106 -51 -5 0 6 19 25 42 38 47 87 139 87 163 0 18 -7 18
-47 5 -19 -7 -38 -7 -54 -1 -21 9 -21 10 -4 11 11 0 28 6 37 13 20 16 66 100
70 130 2 12 19 55 39 95 l36 72 -26 0 c-53 0 -100 21 -130 57 -33 41 -76 146
-66 163 7 11 71 -21 213 -108 l83 -51 47 22 c56 25 197 30 273 8 l46 -13 112
86 c61 47 116 86 121 86 25 0 -2 -113 -37 -152 -10 -11 -40 -30 -66 -42 l-49
-21 31 -39 c18 -22 40 -59 51 -84 11 -24 33 -61 50 -81 31 -40 30 -51 -5 -51
-21 0 -23 -6 -28 -92 -4 -74 -1 -105 14 -155 11 -34 24 -65 29 -68 6 -3 15
-15 21 -27 11 -20 9 -20 -36 -13 l-48 7 6 -47 c9 -63 11 -65 63 -65 l44 0 0
480 0 480 -480 0 -480 0 0 -480z"/>
<path d="M433 192 c-18 -13 -22 -26 -20 -56 3 -36 7 -42 47 -63 50 -26 87 -29
134 -9 70 29 84 61 53 124 -10 20 -17 22 -101 22 -71 0 -96 -4 -113 -18z"/>
</g>
</svg>
